<svg id="Layer_1" data-name="Layer 1" xmlns="http://www.w3.org/2000/svg" viewBox="0 0 720 267.84"><defs><style>.cls-1{fill:#0d223f;}.cls-2{fill:#939598;}</style></defs><title>commlogo_davinci_k</title><path class="cls-1" d="M173.63,99.66H100.71v86.45c41.72-10.61,72.41-45.22,72.92-86.45m-159.24,0H0v57.52a21.58,21.58,0,0,1,14.39,7.13ZM0,38.34V94.22H14.39v-63A21.67,21.67,0,0,1,0,38.34M14.64,16.7A16.35,16.35,0,0,0,.19.59V32.82A16.34,16.34,0,0,0,14.64,16.7m0,162.11A16.36,16.36,0,0,0,.19,162.69v32.24a16.35,16.35,0,0,0,14.45-16.12M39.2,94.22H94.78V7.83H39.2Zm34.56,95.26a110.46,110.46,0,0,0,21.07-2l0-87.8H39.2v84.23a108.65,108.65,0,0,0,34.56,5.59M100.71,7.88V94.22h72.88c0-.89.06-1.77.06-2.67,0-44.82-32.31-81.41-72.94-83.67M194.34,69V.59H125.8C161.8,9,189.26,35.82,194.34,69m-79.51,126h79.51V115.62c-5.89,38.43-37.75,69.6-79.51,79.31m152.55-31c0,4.5-.47,5.68-2.36,7.81-9.46,10.17-17,12.06-23.65,12.06-11.83,0-16.56-7.57-16.56-16.08,0-11.12,9.7-18,24.6-18.21,8.75-.24,13,.23,16.55.94,1,.24,1.42.24,1.42,1.42Zm16.08-37.6c0-14.19-5.2-35-30.74-35-7.81,0-26.81,1.75-36.61,14.27-2.06,2.83-3.81,7.61-3.81,10.45a16,16,0,0,0,1.87,8.39c3.07,6.15,8,5.2,9.7.71,1.89-5,3.07-11.12,5.2-14.9,2.13-4.5,6.15-7.57,14.43-7.57,10.4,0,23.41,5.91,23.88,27v11.12c-2.84-.24-5.91-.48-7.8-.48-24.6,0-52.74,10.88-52.74,30.75,0,19.63,14.43,23.85,22.94,23.85,9.93,0,21.28-1.62,36.89-14.63,0,6.46,1.18,14.39,7.81,14.63,7.8.23,16.08,0,21-3,4.74-2.6,4.5-8.28,0-8.28-4.25.24-10.16.24-12.06-3.07-.47-.71-.71-2.13-.71-4.26,0-2.6.71-35.95.71-49.9m149.11-79.8c-5,0-6.93-.14-17.81-.14-8.27,0-13.48-.7-21.75-.7-8.75,0-8.75,6.85-1.19,7.8,11.36,1.66,14.43,3.31,14.43,7.09,0,2.6-33.11,84.67-41.62,103.35-.71,1.66-1.42,2.84-2.6,0-3.32-7.57-23.65-60.3-38.79-100.27-2.36-5.91-.47-7.57,10.17-9.46,7.33-1.18,7.8-8.28-1-8.28-2.36,0-10.64.47-22.46.47-10.17,0-12.83,0-21.11,0-8,0-7.63,5.81.17,7,9.92,2.18,9.92,5.44,13.07,11.43,5.44,12,30.81,76.69,45.47,115,1.81,4.43,2.68,6.71,4.43,10.52,1.81,3.49,4.21,4.58,7.07,4.58,2.24,0,3.93-1.2,5.85-4.22C368.54,183.9,417.31,70.05,418.62,67c3.27-7.62,9.26-10.89,15.79-13.06,6.92-1.27,5.78-7.36-1.84-7.36M455.16,74.5a10.87,10.87,0,1,0-10.87,10.87A10.87,10.87,0,0,0,455.16,74.5m7.22,112.66c-9.7-1.89-8.29-3.55-8.29-13.72V123.3c0-18.21.71-22,1.42-27.19.71-3.31-.95-4.73-2.84-4.73s-3.55.94-5.44,2.13a61.28,61.28,0,0,1-18.68,6.62c-5.44.94-5.2,5.67-.95,7.33,8.28,3.31,9.23,4,9.46,7.57.24,2.36.24,5.2.24,9.69v49.9c0,9-1.18,10.65-10.64,12.54-6.63,1.42-6.39,8,.94,8,3.79,0,11.83-.47,17.74-.47,7.8,0,10.89.47,16.09.47,7.57,0,7.57-6.86.95-8m121.14.23c-9.46-1.65-10.4-2.83-10.4-9.69V128.27c0-23.88-11.83-36.89-30.28-36.89a34.55,34.55,0,0,0-18,5.2,157.31,157.31,0,0,0-17.74,13.24c0-7.8-.23-12.06-.94-15.13-.47-2.37-1.66-3.31-3.31-3.31-1.18,0-3.08.71-5.44,2.36-5.68,3.79-10.64,5.68-17.74,8.28-4,1.66-3.78,5.91-.47,6.86,9.69,3.31,10.88,5.2,10.88,11.59v36.89c0,11.35,0,15.61-.48,20.34-.71,6.38.22,7.8-9.48,9.69-6.38,1.19-6.62,7.81.72,7.81,5.91,0,10.18-.47,17.28-.47,8,0,15.13.47,19.86.47,6.86,0,7.57-6.62,1-7.81-10.41-1.89-11.35-3.31-11.59-9.46-.47-3.78-.47-8.75-.47-17V124c0-3.31,0-4.25,1.42-5.67,5.2-5.68,13.95-12.54,24.12-12.54,15.84,0,23.89,9.94,23.89,25.78v14.9c0,20.58-.24,25.78-.48,30-.47,6.62-1.18,8.75-12.3,10.87-6.62,1.19-6.38,7.81,1.19,7.81,4.25,0,12.29-.47,18.21-.47,7.33,0,13.24.47,19.86.47,7.1,0,7.57-6.62.71-7.81m83.54-9.13c5.2-5.56,2.36-10.89-3.55-6.72-9.46,6.72-16.56,9.5-25.31,9.5-15.13,0-35.23-9.5-35.23-41.47,0-25.49,11.59-36.84,27.9-36.84,15.14,0,22.71,8.11,26,13.9,2.6,4.64,5.44,1.85,7.09-.92a22.19,22.19,0,0,0,3.79-11.13c0-3.47-1.42-5.32-3.79-7.18s-8.28-6-20.81-6a60.68,60.68,0,0,0-33.11,10c-9.69,6.26-25.78,20.62-25.78,45.18,0,26.64,18.69,48.89,42.34,48.89,18.44,0,31.21-7.42,40.44-17.15M706.45,74.71a10.87,10.87,0,1,0-10.87,10.87,10.87,10.87,0,0,0,10.87-10.87m8.7,112.65c-9.7-1.89-10.41-3.54-10.41-13.71V123.51c0-18.21.71-22,1.42-27.2.71-3.31-.95-4.73-2.84-4.73s-3.54,1-5.44,2.13c-6.38,3.31-10.94,5.68-17.09,6.62-5.44,1-3.38,6.77-.94,7.34,8.27,3.31,7.63,4,7.86,7.56.24,2.37.24,5.21.24,9.7v49.9c0,9-1.18,10.64-10.64,12.53-6.62,1.42-6.39,8,.94,8,3.79,0,11.83-.48,17.74-.48,7.8,0,13,.48,18.21.48,7.57,0,7.57-6.86.95-8" transform="translate(0 -0.59)"/><path class="cls-1" d="M72.75,233.81c.33-1-.46-1.36-1.13-1.09a6,6,0,0,0-2.09,1.36,23.24,23.24,0,0,0-9.33-1.63,23.81,23.81,0,0,0-13.27,3.42c-5.49,3.36-8.54,8.57-8.54,14.49,0,11.93,8.54,18.06,19.33,18.06a22.92,22.92,0,0,0,10-2c2.66-1.36,4.41-4.89,4.64-5.43.67-1.85-.62-2.5-1.87-1.09-3.22,3.69-4.91,4.62-9.09,4.62-9,0-13.85-6.3-13.85-16.12,0-8.73,3.73-13.29,10.4-13.29,4.35,0,6.72.92,9,2.66,1.41,1.14,1.69,2,2.15,4.83.28,1.84,2.26,1.57,2.37-.38a36.48,36.48,0,0,1,1.19-8.41m44.55-.49c-1,0-2.88.11-5.25.11-1.75,0-4-.06-6.22-.06-2,0-2.15,1.85-.17,2.17s3.22.49,4,1,.79,1.41.79,4.18c0,1.57,0,7.44,0,12.37-.06,9.17-3.17,11.18-8.65,11.18s-10.34-2.39-10.34-9.93V242.49c0-1.74.06-3.2.12-4.07.11-1.9.45-2.28,3.1-2.82,1.81-.38,1.93-2.28-.17-2.28s-4.85.11-7,.11c-2.54,0-5.26-.11-7.46-.11s-2,1.79-.34,2.17c2.66.49,3.45.81,3.56,2.44.06.76.11,2.44.11,4.72v12c0,8,3.73,13.67,14.81,13.67,13.67,0,15.82-8.62,15.82-16.16v-6.3c0-3.74.17-6.4.28-7.32.23-2,.73-2.44,3.22-3,1.92-.43,1.87-2.22-.17-2.22M130,239.77c0-2.65,1.64-4.88,5.36-4.88,3.28,0,5,1.25,5.88,2.39a8,8,0,0,1,1.36,3.85c.28,1.57,2.26,1.57,2.31-.38a36.61,36.61,0,0,1,.91-7.59c.22-1-1.25-1.31-2.21-.38-.51.48-.62.59-.9.48a22.7,22.7,0,0,0-6.05-.81c-8.25,0-13.5,4.5-13.5,10.2,0,4.45,2.66,7.22,7.57,9.44,1.13.54,3,1.3,4.52,1.95,3.22,1.47,4.69,3.15,4.69,6.08,0,3.09-2,5.43-6.21,5.43-5,0-6.61-2.12-7.18-3a12,12,0,0,1-1.24-4.23c-.17-1.63-2-1.63-2.32.21a29.76,29.76,0,0,0-.17,6.73c.17,1.68,3.9,3,8.59,3a19.09,19.09,0,0,0,11-3c4.57-3.25,5.08-6.83,5.08-9.06,0-3-1.3-6.08-7.85-8.68-1.3-.54-2.88-1.19-4.41-1.85-3.39-1.46-5.25-2.93-5.25-5.86m59.07-6.45c.28-1.36-1.07-1.74-2.09-.82-.85.76-2.26.93-4.91.93H159.17c-1.25,0-1.75-.17-2.21-.82-.67-1.08-2.26-.87-2.26.38,0,3-.45,7-.5,8.25,0,1.68,1.8,1.63,2.26,0,1.13-3.79,1.86-4.55,3-4.72s2-.21,7.06-.21c.45,0,.62,0,.62.54v21.76c0,1.84-.06,3.47-.11,4.07-.17,1.52-.62,2-4.3,2.6-2,.33-1.69,2.28,0,2.28,1.36,0,5.2-.16,8-.16,3.61,0,6.21.16,8.47.16s2.26-1.95.4-2.28c-3.45-.54-4.13-.81-4.24-2.28-.11-1.25-.11-2.11-.11-4.72V237c0-.54,0-.6.5-.6,7.12,0,8,0,8.76.38.91.49,1.25,2.5,1.58,4,.4,1.95,2.32,1.73,2.32-.17a45.73,45.73,0,0,1,.62-7.32m34.6,18.12c0,8.52-2.38,14.16-9,14.16-8.08,0-11.53-8.46-11.53-17,0-6.24,1.58-13.35,9.1-13.35,8.13,0,11.47,8,11.47,16.17m9.32-1.79c0-9.71-7.06-17.2-18.59-17.2-6.21,0-10.51,1.79-13.73,4.29a17.06,17.06,0,0,0-6.84,14c-.05,9.33,6.62,17.63,19.33,17.63a20.55,20.55,0,0,0,14.07-5c3-2.66,5.76-6.73,5.76-13.73m54.36,15.68c-3.45-.54-3.73-1.25-3.9-3.42-.28-3.74-.56-18.17-.56-23.27,0-2.12.39-2.5,3.95-3.1,2-.32,2.09-2.28.06-2.28-3.22,0-8.08.06-9.27.17s-1.75.54-3.5,4c-4.47,8.63-8.42,16.6-9.16,18-.28.43-.39.43-.62,0-1.41-2.72-5.93-12.05-8-16a36.28,36.28,0,0,0-2.72-4.83,2,2,0,0,0-1.69-1.14c-2.09-.11-9.1-.16-10.4-.16-2.14,0-2.14,1.9-.28,2.22,4.8.76,4.92,1.31,4.8,3.58-.28,4.29-1.58,18.83-2.09,22.3-.34,2.66-1,3.21-4.23,3.91-2,.38-1.81,2.22.22,2.22,1.36,0,3.79-.1,5.93-.1,2.32,0,4,.1,6.16.1s2.09-1.95.28-2.22c-4.35-.7-4.63-1.08-4.57-4,0-3.48.45-11.56.9-19.21.06-.33.23-.54.45-.16,3.56,7.32,7.07,15.78,8.76,20,1.19,3,1.58,4.12,2.09,5.42s2.26,1.2,3-.38,1.52-3.52,3.1-6.83c3.11-6.79,5.49-11.72,8.65-18.13,0-.05.34-.27.34.22.11,3.36.11,16.33-.06,20.62-.05,1.46-.45,1.84-3.05,2.44-1.86.43-1.75,2.28.28,2.28s5.09-.16,7.46-.16,4.8.1,7.35.1c2.14,0,2.26-1.89.28-2.22M346.15,234c.23-1-.62-1.36-1.35-1-1,.38-2.66.49-6.67.49H326c-4.35,0-5.93-.11-7.4-.11-2.15,0-2.15,1.84-.29,2.22,2.72.55,3.11,1,3.39,1.74.17.6.29,1.36.29,6.51V257.9c0,2.82-.06,3.85-.12,4.72-.11,1.73-.56,2.17-3.56,2.71-1.86.38-1.8,2.22.29,2.22,1.86,0,4.91-.1,7.4-.1,3.22,0,5.87.1,7.91.1s2-1.89,0-2.22c-3.11-.6-3.56-.87-3.73-2.28-.06-.81-.11-2.17-.11-4.18V252c0-.33.05-.44.39-.44h6.05c3.16,0,3.56.17,4.07.76a5.06,5.06,0,0,1,1.24,2.61c.45,1.68,2.43,1.62,2.32-.55a67.09,67.09,0,0,1,.28-8.19c.22-1.63-1.58-1.9-2.26-.27a7.74,7.74,0,0,1-1,1.74c-.45.59-1.24.76-5.37.76H330.5c-.34,0-.39-.11-.39-.33V237.88c0-1,.05-1.2.67-1.31a89.57,89.57,0,0,1,9.89-.16c.85.11,1.19.49,1.58,1.47a17.52,17.52,0,0,1,.63,2.76c.28,1.68,2.31,1.58,2.37-.32a33.66,33.66,0,0,1,.9-6.35m19.31,23.33V244c0-3.09.06-4.39.11-5.59.11-1.89.74-2.33,3.5-2.82,2-.38,1.87-2.22.06-2.22-1.24,0-5,.11-7.8.11-2,0-5.76-.11-7.45-.11-2.09,0-2,1.84-.23,2.22,2.94.55,3.5.93,3.62,2.72.11,1.57.11,2.17.11,5.75v13.07c0,3.1-.06,4.07-.11,5.1-.12,1.85-.4,2.61-3.56,3.15-1.92.33-1.81,2.22.11,2.22,1.64,0,4.46-.1,7.34-.1,3.62,0,6.84.1,7.75.1,2.14,0,2.2-1.89.16-2.22-3-.54-3.27-1.25-3.5-3.31-.05-1.08-.11-1.57-.11-4.72m36-13.18c0,5-2.43,6.13-6.61,6.13-1.13,0-3.1-.11-3.5-.17a.41.41,0,0,1-.34-.48v-8c0-4.13.06-4.62.4-5s1.41-.59,3.1-.59c5.37,0,6.95,4.23,6.95,8.14m14.47,21.32a7,7,0,0,1-1.81-.43c-1.13-.33-2.09-.82-4.07-3.31a109.55,109.55,0,0,1-7.29-10.58c4.41-1.85,7.24-5.11,7.24-9,0-3.31-2.43-8.85-13.23-8.85-4,0-8.08.17-10.73.17-2.49,0-5.2-.11-6.27-.11-1.92,0-2,1.79-.23,2.17,2.77.6,3.39.92,3.56,2.49.06.82.06,2.23.06,4.62v14.81c0,2.6-.06,3.91-.17,5.21-.17,1.68-.34,2.17-3.28,2.71-1.92.38-1.86,2.22.06,2.22,1.3,0,4-.1,7.62-.1,3.85,0,5.65.1,7.18.1,1.92,0,2-1.79.28-2.17-3.27-.7-3.61-1-3.73-3-.05-.7-.11-2.39-.11-4.88v-4.13c1.13,0,3.05-.16,4-.21.57-.06.79.27,1,.7,2,3.47,3.22,5.75,5.2,8.85,2.65,4.17,4.57,4.72,7.34,4.88a46.27,46.27,0,0,0,7.35-.06c1.75-.27,1.81-1.95,0-2.11m37.15,1a26.27,26.27,0,0,0,1.58-6.9c.12-1.73-1.58-1.95-2.31-.21-1.36,3.2-2.26,4.45-3.39,4.88a9.45,9.45,0,0,1-3.45.44c-4.35,0-7.4-.17-8.25-.66s-.79-.81-.79-4.66v-7.65c0-.22.06-.33.34-.33h5.76c3.17,0,3.51.06,3.9.54a8.79,8.79,0,0,1,1.13,2.61c.45,1.36,2.37,1.3,2.26-.71a72.68,72.68,0,0,1,.34-7.38c.11-1.73-1.41-1.79-2.15-.38a6.6,6.6,0,0,1-1,1.47c-.45.54-1.18.65-4.46.65h-5.88c-.22,0-.28,0-.28-.27v-9.77c0-1.3.17-1.46,1-1.57,2-.22,8.53-.27,9.55.11,1.24.54,1.47,1.52,2,3.85.46,1.68,2.26,1.68,2.38-.33a49.67,49.67,0,0,1,.68-6.29c.22-.76-.63-1.3-1.53-1a8.55,8.55,0,0,1-3.62.55H432c-2.71,0-5.19-.11-7-.11-2.15,0-2.15,1.84-.17,2.22,3,.55,3.33,1.2,3.44,2.72.06.86.12,1.68.12,5.15v14c0,3.2-.06,4.18-.12,5-.16,1.74-.67,2.34-4.4,2.88-2,.27-2.09,2.22,0,2.22,1.47,0,6.67-.1,8.48-.1,5.54,0,14.63.21,18.31.21,1.46,0,1.86-.27,2.31-1.24m31.85-22c0,5.92-2,7.81-6,7.81a9.82,9.82,0,0,1-4-.7c-.34-.16-.45-.33-.45-.92V239.12c0-1.62,0-2.33.34-2.65a4.36,4.36,0,0,1,2.88-.76c4.52,0,7.23,2.87,7.23,8.73m8.48-1.74c0-4.72-4.13-9.44-13.28-9.44-4,0-9.27.17-10.68.17-2.32,0-5-.17-6.38-.17-2.21,0-2.15,1.9-.34,2.23,2.93.54,3.44.92,3.56,2.71.11,1.57.11,2.39.11,5.86v13.73c0,2.28,0,3.63-.11,5-.12,1.57-.51,2-3.51,2.55-2,.43-1.75,2.22.06,2.22,2,0,5.08-.1,7.68-.1s6.33.21,8,.16,2-1.9,0-2.28c-3.16-.6-3.67-.87-3.84-2.44a37.28,37.28,0,0,1-.17-4v-4c.45,0,1.92.06,2.65.06,4.92,0,8.82-1.25,11.81-3.48a10.19,10.19,0,0,0,4.47-8.79m35.1,23.12a26.48,26.48,0,0,0,1.69-6.78c.12-1.85-1.58-2.28-2.42-.22-1.87,4.45-3.06,5.75-5.37,5.75-3,.06-8,.06-9.16-.7-.62-.44-.67-1-.73-2.39-.06-1.74-.11-2.61-.11-4.94V242.65c0-2.06.05-3.2.17-4.56.11-1.68.56-2,3.73-2.55,1.69-.38,1.92-2.22-.17-2.22-1.93,0-4.24.11-8.48.11-3.5,0-5.08-.11-6.61-.11-2.26,0-2.26,1.9-.34,2.22,3,.55,3.39,1,3.5,2.44.12,1.2.12,2.93.12,5.43v13.84c0,3.09,0,4-.12,5.64s-.67,1.95-3.44,2.44c-2.21.38-2.09,2.28.05,2.28,1.13,0,4.75-.16,7.46-.16,5.43,0,16.39.32,18.2.1,1.07-.1,1.58-.65,2-1.73m28.26-13.13h-8c-.28,0-.39-.06-.28-.22,1.19-3,3.39-8.46,4.3-10.58.9,2.12,3.67,9.06,4.23,10.42.12.32,0,.38-.28.38M574,265.17c-2.48-.49-3.1-1-4.23-3.31-2.38-5.05-7.69-17.36-11.36-26.37a9.64,9.64,0,0,1-.34-2c-.11-.66-.4-1-1.07-1-1.19,0-4.64,3.09-4.86,4a14.44,14.44,0,0,1-.74,2.06c-2.14,4.94-7.34,17-9.88,22.36-1.59,3.36-2.09,3.85-5.15,4.39-1.92.33-1.8,2.22.23,2.22.73,0,4-.1,5.93-.1s3.34.1,5.26.1c2.09,0,2.14-1.84.28-2.22-3.67-.7-4-1.19-3-4,.79-2.07,1.52-3.59,2-5.05,0-.22.22-.33.5-.33h10.29c.39,0,.62.06.73.38.79,2.07,2.43,5.75,2.88,6.95.4,1.36.12,1.57-2,2.06-1.92.43-1.64,2.22.23,2.22,1.69,0,5-.1,7.45-.1,3.28,0,4.75.1,6.78.1s2.32-1.89.17-2.38m38.67-31.36c.34-1-.46-1.36-1.13-1.09a6,6,0,0,0-2.09,1.36,23.24,23.24,0,0,0-9.33-1.63,23.81,23.81,0,0,0-13.27,3.42c-5.49,3.36-8.54,8.57-8.54,14.49,0,11.93,8.54,18.06,19.33,18.06a22.92,22.92,0,0,0,10-2c2.66-1.36,4.41-4.89,4.64-5.43.68-1.85-.62-2.5-1.87-1.09-3.22,3.69-4.91,4.62-9.09,4.62-9,0-13.85-6.3-13.85-16.12,0-8.73,3.73-13.29,10.4-13.29,4.35,0,6.72.92,9,2.66,1.41,1.14,1.69,2,2.15,4.83.28,1.84,2.26,1.57,2.37-.38a36.48,36.48,0,0,1,1.19-8.41m34.74,32.61a25.81,25.81,0,0,0,1.59-6.9c.11-1.73-1.59-1.95-2.32-.21-1.36,3.2-2.26,4.45-3.39,4.88a9.45,9.45,0,0,1-3.45.44c-4.35,0-7.4-.17-8.25-.66s-.79-.81-.79-4.66v-7.65c0-.22.06-.33.34-.33h5.76c3.17,0,3.51.06,3.9.54a8.79,8.79,0,0,1,1.13,2.61c.45,1.36,2.38,1.3,2.26-.71s.12-4.72.34-7.38c.11-1.73-1.41-1.79-2.15-.38a6.6,6.6,0,0,1-1,1.47c-.45.54-1.18.65-4.46.65h-5.88c-.22,0-.28,0-.28-.27v-9.77c0-1.3.17-1.46,1-1.57,2-.22,8.53-.27,9.55.11,1.24.54,1.47,1.52,2,3.85.45,1.68,2.26,1.68,2.37-.33a49.67,49.67,0,0,1,.68-6.29c.22-.76-.63-1.3-1.53-1a8.55,8.55,0,0,1-3.62.55H626.37c-2.71,0-5.19-.11-7-.11-2.15,0-2.15,1.84-.17,2.22,3,.55,3.33,1.2,3.45,2.72.05.86.11,1.68.11,5.15v14c0,3.2-.06,4.18-.11,5-.17,1.74-.68,2.34-4.41,2.88-2,.27-2.09,2.22.06,2.22,1.46,0,6.66-.1,8.47-.1,5.54,0,14.63.21,18.31.21,1.47,0,1.86-.27,2.31-1.24m15.11-26.65c0-2.65,1.63-4.88,5.36-4.88,3.28,0,5,1.25,5.88,2.39a7.9,7.9,0,0,1,1.35,3.85c.29,1.57,2.26,1.57,2.32-.38a35.94,35.94,0,0,1,.91-7.59c.22-1-1.25-1.31-2.21-.38-.51.48-.62.59-.9.48a22.7,22.7,0,0,0-6.05-.81c-8.25,0-13.5,4.5-13.5,10.2,0,4.45,2.65,7.22,7.57,9.44,1.13.54,3,1.3,4.52,1.95,3.22,1.47,4.69,3.15,4.69,6.08,0,3.09-2,5.43-6.22,5.43-5,0-6.61-2.12-7.17-3a11.81,11.81,0,0,1-1.24-4.23c-.17-1.63-2-1.63-2.32.21a29.76,29.76,0,0,0-.17,6.73c.17,1.68,3.9,3,8.59,3a19.09,19.09,0,0,0,11-3c4.57-3.25,5.08-6.83,5.08-9.06,0-3-1.3-6.08-7.85-8.68-1.3-.54-2.88-1.19-4.41-1.85-3.39-1.46-5.25-2.93-5.25-5.86" transform="translate(0 -0.59)"/><path class="cls-2" d="M694.18,235.75a6.57,6.57,0,0,1,.15-1.35.18.18,0,0,0-.3-.2,1,1,0,0,1-.79.24h-4.73c-.31,0-.49,0-.63-.23a.2.2,0,0,0-.36.11c0,.63-.1,1.46-.1,1.57,0,.38.29.38.39,0,.21-.67.32-.86.52-.92a11.21,11.21,0,0,1,1.86-.05c.08,0,.09,0,.09.18v4.68c0,.53,0,.81,0,.94,0,.38-.09.49-.88.59-.38,0-.34.38,0,.38l1.38,0c.41,0,.69,0,1.3,0s.48-.34.06-.38c-.8-.1-.88-.21-.89-.59s0-.44,0-.88V235.1c0-.11,0-.14,0-.14,1.81,0,2.07,0,2.23.08s.2.31.26.77.43.4.43-.06" transform="translate(0 -0.59)"/><path class="cls-2" d="M705.75,234.41c-.43,0-1.16,0-1.33,0s-.31.13-.7.85c-.88,1.71-2.28,4.44-2.45,4.75,0,.06-.06.05-.09,0l-2.11-4.35a7.4,7.4,0,0,0-.56-1c-.1-.15-.17-.23-.31-.25a14,14,0,0,0-1.55,0c-.41,0-.4.34,0,.37,1,.13,1,.31,1,.73,0,.84-.28,4.26-.39,5.1-.07.47-.14.58-.78.71-.37,0-.36.38,0,.38l1,0c.48,0,.88,0,1.21,0s.43-.36.06-.4c-.84-.12-.93-.19-.92-.75,0-.82.13-2.89.22-4.64,0-.06,0-.06.07,0,.91,1.87,1.68,3.68,2,4.51a12.2,12.2,0,0,1,.46,1.2c.08.23.33.26.46-.06s.32-.75.66-1.43c.64-1.31,1.49-3,2.14-4.2,0,0,0,0,0,0,0,.81,0,3.77,0,4.76,0,.37,0,.5-.6.59-.4.07-.39.4,0,.4.19,0,.78,0,1.18,0s.73,0,1.14,0,.47-.34.07-.4c-.73-.1-.77-.16-.81-.71-.05-.73-.09-4.66-.08-5.21s.16-.49.88-.59c.38,0,.41-.4,0-.4" transform="translate(0 -0.59)"/></svg>