<?xml version="1.0" encoding="utf-8"?>
<!-- Generator: Adobe Illustrator 22.0.1, SVG Export Plug-In . SVG Version: 6.00 Build 0)  -->
<svg version="1.1" id="Layer_1" xmlns="http://www.w3.org/2000/svg" xmlns:xlink="http://www.w3.org/1999/xlink" x="0px" y="0px"
	 viewBox="0 0 326.2 88" style="enable-background:new 0 0 326.2 88;" xml:space="preserve">
<style type="text/css">
	.st0{clip-path:url(#SVGID_2_);fill:#162034;}
</style>
<title>Logo</title>
<desc>Created with Sketch.</desc>
<g>
	<defs>
		<rect id="SVGID_1_" width="326.2" height="88.2"/>
	</defs>
	<clipPath id="SVGID_2_">
		<use xlink:href="#SVGID_1_"  style="overflow:visible;"/>
	</clipPath>
	<path class="st0" d="M6.5,44.9H0v26.1c2.6,0.2,4.9,1.4,6.5,3.2V44.9z M0,17.1v25.3h6.5V13.9C4.9,15.7,2.6,16.9,0,17.1 M6.6,7.3
		c0-3.8-2.9-6.8-6.5-7.3v14.6C3.8,14.1,6.6,11.1,6.6,7.3 M6.6,80.7c0-3.8-2.9-6.8-6.5-7.3V88C3.8,87.6,6.6,84.5,6.6,80.7 M17.8,42.4
		h25.2V3.3H17.8V42.4z M33.4,85.6c3.3,0,6.5-0.3,9.5-0.9l0-39.8H17.8v38V83C22.6,84.7,27.9,85.6,33.4,85.6 M45.6,84
		c18.9-4.8,32.8-20.5,33-39.2h-33V84z M45.6,3.3v0.2v38.9h33h0c0-0.4,0-0.8,0-1.2C78.7,20.9,64,4.3,45.6,3.3 M88,31V0H57
		C73.3,3.8,85.7,16,88,31 M52,88h36V52.1C85.4,69.5,70.9,83.6,52,88 M121.1,74c0,2-0.2,2.6-1.1,3.5c-4.3,4.6-7.7,5.5-10.7,5.5
		c-5.4,0-7.5-3.4-7.5-7.3c0-5,4.4-8.1,11.1-8.2c4-0.1,5.9,0.1,7.5,0.4c0.4,0.1,0.6,0.1,0.6,0.6V74z M128.4,57
		c0-6.4-2.4-15.9-13.9-15.9c-3.5,0-12.1,0.8-16.6,6.5c-0.9,1.3-1.7,3.4-1.7,4.7c0,1.4,0.1,2.3,0.8,3.8c1.4,2.8,3.6,2.4,4.4,0.3
		c0.9-2.2,1.4-5,2.4-6.7c1-2,2.8-3.4,6.5-3.4c4.7,0,10.6,2.7,10.8,12.2v5c-1.3-0.1-2.7-0.2-3.5-0.2c-11.1,0-23.9,4.9-23.9,13.9
		c0,8.9,6.5,10.8,10.4,10.8c4.5,0,9.6-0.7,16.7-6.6c0,2.9,0.5,6.5,3.5,6.6c3.5,0.1,7.3,0,9.5-1.4c2.1-1.2,2-3.7,0-3.7
		c-1.9,0.1-4.6,0.1-5.5-1.4c-0.2-0.3-0.3-1-0.3-1.9C128.1,78.4,128.4,63.3,128.4,57 M195.9,20.8c-2.2,0-3.1-0.1-8.1-0.1
		c-3.7,0-6.1-0.3-9.9-0.3c-4,0-4,3.1-0.5,3.5c5.1,0.8,6.5,1.5,6.5,3.2c0,1.2-15,38.4-18.9,46.8c-0.3,0.7-0.6,1.3-1.2,0
		c-1.5-3.4-10.7-27.3-17.6-45.4c-1.1-2.7-0.2-3.4,4.6-4.3c3.3-0.5,3.5-3.7-0.4-3.7c-1.1,0-4.8,0.2-10.2,0.2c-4.6,0-5.8,0-9.6,0
		c-3.6,0-3.5,2.6,0.1,3.2c4.5,1,4.5,2.5,5.9,5.2c2.5,5.4,14,34.7,20.6,52.1c0.8,2,1.2,3,2,4.8c0.8,1.6,1.9,2.1,3.2,2.1
		c1,0,1.8-0.5,2.6-1.9c1.6-3.1,23.7-54.7,24.3-56c1.5-3.5,4.2-4.9,7.2-5.9C199.9,23.6,199.4,20.8,195.9,20.8 M206.2,33.5
		c0-2.7-2.2-4.9-4.9-4.9c-2.7,0-4.9,2.2-4.9,4.9c0,2.7,2.2,4.9,4.9,4.9C204,38.4,206.2,36.2,206.2,33.5 M209.5,84.5
		c-4.4-0.9-3.8-1.6-3.8-6.2V55.6c0-8.3,0.3-10,0.6-12.3c0.3-1.5-0.4-2.1-1.3-2.1c-0.9,0-1.6,0.4-2.5,1c-2.9,1.5-5.7,2.6-8.5,3
		c-2.5,0.4-2.4,2.6-0.4,3.3c3.7,1.5,4.2,1.8,4.3,3.4c0.1,1.1,0.1,2.4,0.1,4.4v22.6c0,4.1-0.5,4.8-4.8,5.7c-3,0.6-2.9,3.6,0.4,3.6
		c1.7,0,5.4-0.2,8-0.2c3.5,0,4.9,0.2,7.3,0.2C212.5,88.2,212.5,85,209.5,84.5 M264.3,84.6c-4.3-0.8-4.7-1.3-4.7-4.4V57.8
		c0-10.8-5.4-16.7-13.7-16.7c-2.9,0-5.7,0.9-8.1,2.4c-2.8,1.7-6.7,4.8-8,6c0-3.5-0.1-5.5-0.4-6.9c-0.2-1.1-0.8-1.5-1.5-1.5
		c-0.5,0-1.4,0.3-2.5,1.1c-2.6,1.7-4.8,2.6-8,3.7c-1.8,0.8-1.7,2.7-0.2,3.1c4.4,1.5,4.9,2.4,4.9,5.2V71c0,5.1,0,7.1-0.2,9.2
		c-0.3,2.9,0.1,3.5-4.3,4.4c-2.9,0.5-3,3.5,0.3,3.5c2.7,0,4.6-0.2,7.8-0.2c3.6,0,6.9,0.2,9,0.2c3.1,0,3.4-3,0.4-3.5
		c-4.7-0.9-5.1-1.5-5.2-4.3c-0.2-1.7-0.2-4-0.2-7.7V55.9c0-1.5,0-1.9,0.6-2.6c2.4-2.6,6.3-5.7,10.9-5.7c7.2,0,10.8,4.5,10.8,11.7
		v6.7c0,9.3-0.1,11.7-0.2,13.6c-0.2,3-0.5,4-5.6,4.9c-3,0.5-2.9,3.5,0.5,3.5c1.9,0,5.6-0.2,8.2-0.2c3.3,0,6,0.2,9,0.2
		C267.2,88.2,267.4,85.2,264.3,84.6 M302.2,80.5c2.4-2.5,1.1-4.9-1.6-3c-4.3,3-7.5,4.3-11.5,4.3c-6.9,0-16-4.3-16-18.8
		c0-11.5,5.2-16.7,12.6-16.7c6.9,0,10.3,3.7,11.8,6.3c1.2,2.1,2.5,0.8,3.2-0.4c0.6-0.8,1.7-3.1,1.7-5c0-1.6-0.6-2.4-1.7-3.3
		c-1.1-0.8-3.7-2.7-9.4-2.7c-3.3,0-9,0.6-15,4.5c-4.4,2.8-11.7,9.3-11.7,20.5c0,12.1,8.5,22.1,19.2,22.1
		C292.2,88.2,298,84.9,302.2,80.5 M320,33.6c0-2.7-2.2-4.9-4.9-4.9s-4.9,2.2-4.9,4.9c0,2.7,2.2,4.9,4.9,4.9S320,36.3,320,33.6
		 M324,84.6c-4.4-0.9-4.7-1.6-4.7-6.2V55.7c0-8.2,0.3-10,0.6-12.3c0.3-1.5-0.4-2.1-1.3-2.1c-0.9,0-1.6,0.4-2.5,1
		c-2.9,1.5-5,2.6-7.7,3c-2.5,0.4-1.5,3.1-0.4,3.3c3.7,1.5,3.5,1.8,3.6,3.4c0.1,1.1,0.1,2.4,0.1,4.4v22.6c0,4.1-0.5,4.8-4.8,5.7
		c-3,0.6-2.9,3.6,0.4,3.6c1.7,0,5.4-0.2,8-0.2c3.5,0,5.9,0.2,8.2,0.2C327,88.2,327,85.1,324,84.6"/>
</g>
</svg>
