<?xml version="1.0" encoding="UTF-8"?>
<svg width="301px" height="88px" viewBox="0 0 301 88" version="1.1" xmlns="http://www.w3.org/2000/svg" xmlns:xlink="http://www.w3.org/1999/xlink">
    <!-- Generator: Sketch 45.2 (43514) - http://www.bohemiancoding.com/sketch -->
    <title>Logo</title>
    <desc>Created with Sketch.</desc>
    <defs></defs>
    <g id="Page-1" stroke="none" stroke-width="1" fill="none" fill-rule="evenodd">
        <g id="Logo" fill="#111B2F">
            <path d="M114.1067,78.0352 C110.1887,81.0632 107.7307,82.8132 106.7297,83.2872 C105.2307,83.9802 103.6327,84.3282 101.9387,84.3282 C99.2987,84.3282 97.1247,83.4262 95.4167,81.6192 C93.7077,79.8142 92.8537,77.4382 92.8537,74.4932 C92.8537,72.6322 93.2697,71.0202 94.1037,69.6592 C95.2427,67.7702 97.2227,65.9922 100.0427,64.3252 C102.8617,62.6582 107.5497,60.6312 114.1067,58.2422 L114.1067,56.7402 C114.1067,52.9342 113.5027,50.3222 112.2947,48.9052 C111.0857,47.4882 109.3287,46.7802 107.0227,46.7802 C105.2727,46.7802 103.8827,47.2532 102.8547,48.1972 C101.7977,49.1422 101.2707,50.2252 101.2707,51.4482 L101.3547,53.8642 C101.3547,55.1442 101.0267,56.1302 100.3757,56.8252 C99.7217,57.5182 98.8677,57.8662 97.8127,57.8662 C96.7847,57.8662 95.9447,57.5042 95.2917,56.7832 C94.6377,56.0602 94.3127,55.0732 94.3127,53.8242 C94.3127,51.4342 95.5337,49.2402 97.9807,47.2402 C100.4237,45.2402 103.8557,44.2392 108.2717,44.2392 C111.6617,44.2392 114.4397,44.8082 116.6077,45.9482 C118.2457,46.8082 119.4547,48.1562 120.2327,49.9912 C120.7327,51.1842 120.9827,53.6292 120.9827,57.3242 L120.9827,70.2852 C120.9827,73.9232 121.0507,76.1532 121.1907,76.9732 C121.3297,77.7932 121.5597,78.3412 121.8787,78.6182 C122.1967,78.8982 122.5657,79.0362 122.9827,79.0362 C123.4277,79.0362 123.8167,78.9382 124.1497,78.7432 C124.7327,78.3842 125.8587,77.3692 127.5247,75.7022 L127.5247,78.0352 C124.4137,82.2032 121.4407,84.2862 118.6077,84.2862 C117.2467,84.2862 116.1627,83.8142 115.3557,82.8692 C114.5497,81.9262 114.1337,80.3142 114.1067,78.0352 M114.1067,75.3272 L114.1067,60.7832 C109.9117,62.4502 107.2037,63.6322 105.9807,64.3252 C103.7847,65.5472 102.2157,66.8262 101.2707,68.1582 C100.3267,69.4922 99.8537,70.9512 99.8537,72.5352 C99.8537,74.5342 100.4517,76.1962 101.6457,77.5142 C102.8407,78.8352 104.2157,79.4942 105.7717,79.4942 C107.8827,79.4942 110.6627,78.1042 114.1067,75.3272" id="Fill-53"></path>
            <path d="M184.2281,27.0283 L184.2281,28.5703 C182.2281,28.9303 180.7131,29.5693 179.6851,30.4873 C178.2121,31.8483 176.9071,33.9313 175.7691,36.7383 L156.0571,84.8283 L154.5161,84.8283 L133.3461,36.1123 C132.2621,33.6123 131.4981,32.0853 131.0541,31.5283 C130.3591,30.6683 129.5031,29.9933 128.4901,29.5083 C127.4761,29.0213 126.1081,28.7093 124.3851,28.5703 L124.3851,27.0283 L147.4731,27.0283 L147.4731,28.5703 C144.8601,28.8203 143.1661,29.2653 142.3881,29.9043 C141.6111,30.5433 141.2221,31.3613 141.2221,32.3623 C141.2221,33.7523 141.8611,35.9183 143.1391,38.8633 L157.5161,71.9923 L170.8511,39.2793 C172.1561,36.0563 172.8091,33.8203 172.8091,32.5703 C172.8091,31.7643 172.4061,30.9943 171.6011,30.2573 C170.7951,29.5223 169.4341,29.0013 167.5171,28.6953 C167.3781,28.6683 167.1431,28.6263 166.8081,28.5703 L166.8081,27.0283 L184.2281,27.0283 Z" id="Fill-55"></path>
            <path d="M196.071,44.2393 L196.071,74.9093 C196.071,77.3003 196.243,78.8893 196.592,79.6823 C196.938,80.4733 197.452,81.0633 198.132,81.4523 C198.813,81.8413 200.056,82.0363 201.864,82.0363 L201.864,83.5353 L183.318,83.5353 L183.318,82.0363 C185.179,82.0363 186.43,81.8553 187.069,81.4943 C187.709,81.1333 188.214,80.5363 188.589,79.7023 C188.965,78.8693 189.152,77.2713 189.152,74.9093 L189.152,60.1993 C189.152,56.0613 189.027,53.3793 188.777,52.1563 C188.583,51.2693 188.277,50.6503 187.861,50.3023 C187.443,49.9553 186.875,49.7813 186.151,49.7813 C185.374,49.7813 184.43,49.9893 183.318,50.4073 L182.734,48.9063 L194.237,44.2393 L196.071,44.2393 Z M192.612,24.2783 C193.778,24.2783 194.771,24.6893 195.591,25.5073 C196.411,26.3273 196.82,27.3193 196.82,28.4863 C196.82,29.6533 196.411,30.6543 195.591,31.4873 C194.771,32.3213 193.778,32.7373 192.612,32.7373 C191.445,32.7373 190.444,32.3213 189.611,31.4873 C188.777,30.6543 188.361,29.6533 188.361,28.4863 C188.361,27.3193 188.77,26.3273 189.59,25.5073 C190.41,24.6893 191.416,24.2783 192.612,24.2783 L192.612,24.2783 Z" id="Fill-57"></path>
            <path d="M215.9829,52.3232 C220.4549,46.9352 224.7189,44.2382 228.7769,44.2382 C230.8599,44.2382 232.6519,44.7612 234.1519,45.8022 C235.6519,46.8442 236.8449,48.5592 237.7359,50.9482 C238.3469,52.6152 238.6529,55.1702 238.6529,58.6162 L238.6529,74.9102 C238.6529,77.3282 238.8469,78.9662 239.2359,79.8272 C239.5419,80.5222 240.0339,81.0642 240.7149,81.4532 C241.3949,81.8422 242.6529,82.0352 244.4879,82.0352 L244.4879,83.5362 L225.6079,83.5362 L225.6079,82.0352 L226.4009,82.0352 C228.1779,82.0352 229.4229,81.7642 230.1309,81.2232 C230.8399,80.6822 231.3319,79.8832 231.6109,78.8272 C231.7209,78.4102 231.7759,77.1052 231.7759,74.9102 L231.7759,59.2822 C231.7759,55.8092 231.3249,53.2882 230.4219,51.7192 C229.5189,50.1492 227.9979,49.3642 225.8589,49.3642 C222.5519,49.3642 219.2599,51.1722 215.9829,54.7812 L215.9829,74.9102 C215.9829,77.4932 216.1349,79.0912 216.4409,79.7012 C216.8299,80.5082 217.3639,81.0982 218.0459,81.4732 C218.7249,81.8492 220.1079,82.0352 222.1909,82.0352 L222.1909,83.5362 L203.3139,83.5362 L203.3139,82.0352 L204.1479,82.0352 C206.0919,82.0352 207.4039,81.5432 208.0849,80.5552 C208.7669,79.5722 209.1069,77.6882 209.1069,74.9102 L209.1069,60.7412 C209.1069,56.1582 209.0019,53.3652 208.7939,52.3652 C208.5859,51.3652 208.2659,50.6852 207.8349,50.3232 C207.4039,49.9632 206.8289,49.7822 206.1059,49.7822 C205.3279,49.7822 204.3979,49.9902 203.3139,50.4062 L202.6889,48.9062 L214.1909,44.2382 L215.9829,44.2382 L215.9829,52.3232 Z" id="Fill-59"></path>
            <path d="M278.2432,69.0342 C277.2152,74.0632 275.2012,77.9312 272.2002,80.6392 C269.2012,83.3502 265.8802,84.7042 262.2402,84.7042 C257.9072,84.7042 254.1282,82.8852 250.9052,79.2442 C247.6832,75.6042 246.0712,70.6882 246.0712,64.4912 C246.0712,58.4912 247.8572,53.6162 251.4282,49.8652 C254.9972,46.1142 259.2832,44.2392 264.2822,44.2392 C268.0332,44.2392 271.1162,45.2332 273.5342,47.2192 C275.9502,49.2052 277.1592,51.2672 277.1592,53.4072 C277.1592,54.4632 276.8192,55.3172 276.1382,55.9702 C275.4582,56.6222 274.5062,56.9492 273.2842,56.9492 C271.6442,56.9492 270.4082,56.4232 269.5742,55.3662 C269.1032,54.7812 268.7902,53.6722 268.6382,52.0322 C268.4842,50.3922 267.9232,49.1422 266.9502,48.2802 C265.9772,47.4482 264.6292,47.0312 262.9082,47.0312 C260.1302,47.0312 257.8932,48.0592 256.1972,50.1152 C253.9492,52.8382 252.8222,56.4362 252.8222,60.9092 C252.8222,65.4652 253.9402,69.4862 256.1772,72.9722 C258.4142,76.4602 261.4352,78.2012 265.2412,78.2012 C267.9632,78.2012 270.4082,77.2712 272.5762,75.4102 C274.1042,74.1342 275.5902,71.8122 277.0362,68.4512 L278.2432,69.0342 Z" id="Fill-61"></path>
            <path d="M294.4874,44.2393 L294.4874,74.9093 C294.4874,77.3003 294.6614,78.8893 295.0104,79.6823 C295.3564,80.4733 295.8704,81.0633 296.5504,81.4523 C297.2314,81.8413 298.4744,82.0363 300.2814,82.0363 L300.2814,83.5353 L281.7354,83.5353 L281.7354,82.0363 C283.5974,82.0363 284.8484,81.8553 285.4874,81.4943 C286.1264,81.1333 286.6324,80.5363 287.0074,79.7023 C287.3824,78.8693 287.5704,77.2713 287.5704,74.9093 L287.5704,60.1993 C287.5704,56.0613 287.4454,53.3793 287.1954,52.1563 C287.0004,51.2693 286.6944,50.6503 286.2784,50.3023 C285.8614,49.9553 285.2934,49.7813 284.5694,49.7813 C283.7914,49.7813 282.8484,49.9893 281.7354,50.4073 L281.1524,48.9063 L292.6544,44.2393 L294.4874,44.2393 Z M291.0294,24.2783 C292.1964,24.2783 293.1884,24.6893 294.0094,25.5073 C294.8294,26.3273 295.2384,27.3193 295.2384,28.4863 C295.2384,29.6533 294.8294,30.6543 294.0094,31.4873 C293.1884,32.3213 292.1964,32.7373 291.0294,32.7373 C289.8634,32.7373 288.8624,32.3213 288.0284,31.4873 C287.1954,30.6543 286.7794,29.6533 286.7794,28.4863 C286.7794,27.3193 287.1884,26.3273 288.0084,25.5073 C288.8284,24.6893 289.8344,24.2783 291.0294,24.2783 L291.0294,24.2783 Z" id="Fill-63"></path>
            <path d="M5.9346,8.7764 C5.9346,10.6344 5.3796,12.2374 4.2706,13.5864 C3.1616,14.9354 1.7386,15.8194 -0.0004,16.2394 L-0.0004,1.2214 C1.7386,1.7024 3.1466,2.6164 4.2256,3.9644 C5.3056,5.3134 5.8446,6.9184 5.8446,8.7764 L5.9346,8.7764 Z M-0.0004,42.8554 L-0.0004,17.8574 C1.3776,17.5584 2.6206,16.9884 3.7316,16.1494 C4.8406,15.3094 5.7236,14.2914 6.3846,13.0904 L6.3846,42.8554 L-0.0004,42.8554 Z M6.3846,74.7754 C4.8256,72.4974 2.6966,71.1194 -0.0004,70.6394 L-0.0004,44.6524 L6.2946,44.6524 L6.2946,74.7754 L6.3846,74.7754 Z M6.2056,79.6304 C6.2056,81.4904 5.6046,83.1084 4.4066,84.4864 C3.2056,85.8664 1.7386,86.7054 -0.0004,87.0044 L-0.0004,72.2574 C1.7386,72.5584 3.1926,73.3974 4.3606,74.7754 C5.5306,76.1544 6.1136,77.7724 6.1136,79.6304 L6.2056,79.6304 Z M16.9046,42.8544 L42.2606,42.8544 L42.2606,4.0094 L16.9046,4.0094 L16.9046,42.8544 Z M41.2736,83.9914 C40.6726,84.0824 39.8626,84.1874 38.8456,84.3074 C37.8236,84.4274 36.9266,84.5174 36.1466,84.5764 C33.9896,84.6984 32.1466,84.7874 30.6166,84.8464 C29.0876,84.9054 27.3046,84.7874 25.2666,84.4864 C24.1876,84.3664 22.9736,84.1434 21.6246,83.8124 C20.2756,83.4824 19.1816,83.2134 18.3426,83.0024 C17.5026,82.7944 17.0246,82.6594 16.9046,82.5984 L16.9046,44.6524 L42.3516,44.6524 L42.3516,83.8564 C42.2306,83.8564 41.8696,83.9014 41.2736,83.9914 L41.2736,83.9914 Z M44.0596,42.8554 L44.0596,4.1894 C47.1756,4.4904 49.9506,5.0754 52.3776,5.9424 C54.8046,6.8134 57.4876,8.2064 60.4246,10.1234 C63.3616,12.0424 66.1796,14.8004 68.8786,18.3964 C71.2146,21.4534 72.9526,24.4534 74.0926,27.3884 C75.2306,30.3264 76.0096,32.9334 76.4306,35.2114 C76.8486,37.4904 77.0296,40.0384 76.9706,42.8554 L44.0596,42.8554 Z M75.7566,53.8684 C75.0056,56.8384 73.7626,60.1174 72.0246,63.7154 C70.4646,66.8334 68.4876,69.5454 66.0906,71.8534 C63.6906,74.1614 61.2476,76.0654 58.7606,77.5634 C56.2736,79.0614 53.8896,80.2754 51.6136,81.2054 C49.3346,82.1344 47.5356,82.7774 46.2186,83.1374 C44.8996,83.4974 44.1796,83.6764 44.0596,83.6764 L44.0596,44.6524 L77.0596,44.6524 C76.9396,47.8314 76.5056,50.9014 75.7566,53.8684 L75.7566,53.8684 Z M51.2536,87.0934 C54.7906,86.3164 57.8766,85.3404 60.5156,84.1724 C63.1516,83.0024 66.0136,81.3404 69.1016,79.1814 C72.1886,77.0234 75.0516,74.2074 77.6906,70.7294 C79.4266,68.4514 80.8506,66.1874 81.9596,63.9404 C83.0686,61.6924 83.9376,59.6684 84.5686,57.8704 C85.1976,56.0714 85.7516,54.0654 86.2326,51.8464 L86.4116,87.0934 L51.2536,87.0934 Z M86.4116,31.7044 C85.8716,29.9054 85.3766,28.3634 84.9286,27.0734 C84.4776,25.7854 83.9526,24.4214 83.3546,22.9834 C82.7546,21.5434 82.0946,20.2554 81.3766,19.1164 C79.0976,15.5194 76.4746,12.5384 73.5096,10.1694 C70.5406,7.8024 67.7236,5.9134 65.0556,4.5054 C62.3876,3.0964 59.2256,1.8524 55.5686,0.7724 L86.4116,0.7724 L86.4116,31.7044 Z" id="Fill-65"></path>
        </g>
    </g>
</svg>